<svg width="45" height="45" viewBox="0 0 45 45" fill="none" xmlns="http://www.w3.org/2000/svg">
<path d="M41.75 8.67L38 3.11C37.779 2.77919 37.4822 2.50591 37.1344 2.31285C36.7865 2.11979 36.3976 2.01254 36 2H9C8.60236 2.01254 8.21346 2.11979 7.86561 2.31285C7.51775 2.50591 7.221 2.77919 7 3.11L3.25 8.67C3.0868 8.91603 2.99983 9.20476 3 9.5V12.5C2.99844 13.6646 3.26885 14.8135 3.78968 15.8552C4.31051 16.8968 5.06737 17.8025 6 18.5V31.5C6 32.4283 6.36875 33.3185 7.02513 33.9749C7.6815 34.6312 8.57174 35 9.5 35H15V37.5C15 38.163 14.7366 38.7989 14.2678 39.2678C13.7989 39.7366 13.163 40 12.5 40H12C11.6022 40 11.2206 40.158 10.9393 40.4393C10.658 40.7206 10.5 41.1022 10.5 41.5C10.5 41.8978 10.658 42.2794 10.9393 42.5607C11.2206 42.842 11.6022 43 12 43H33C33.3978 43 33.7794 42.842 34.0607 42.5607C34.342 42.2794 34.5 41.8978 34.5 41.5C34.5 41.1022 34.342 40.7206 34.0607 40.4393C33.7794 40.158 33.3978 40 33 40H32.5C31.837 40 31.2011 39.7366 30.7322 39.2678C30.2634 38.7989 30 38.163 30 37.5V35H35.5C36.4283 35 37.3185 34.6312 37.9749 33.9749C38.6312 33.3185 39 32.4283 39 31.5V18.5C39.9326 17.8025 40.6895 16.8968 41.2103 15.8552C41.7312 14.8135 42.0016 13.6646 42 12.5V9.5C42.0002 9.20476 41.9132 8.91603 41.75 8.67ZM9.3 5H35.7L38.36 9H6.64L9.3 5ZM27.09 12C27.0342 12.161 27.0038 12.3297 27 12.5C27 13.6935 26.5259 14.8381 25.682 15.682C24.8381 16.5259 23.6935 17 22.5 17C21.3065 17 20.1619 16.5259 19.318 15.682C18.4741 14.8381 18 13.6935 18 12.5C17.9962 12.3297 17.9658 12.161 17.91 12H27.09ZM6 12H15.09C15.0342 12.161 15.0038 12.3297 15 12.5C15 13.6935 14.5259 14.8381 13.682 15.682C12.8381 16.5259 11.6935 17 10.5 17C9.30652 17 8.16193 16.5259 7.31802 15.682C6.4741 14.8381 6 13.6935 6 12.5V12ZM27.61 40H17.39C17.7918 39.228 18.0011 38.3703 18 37.5V35H27V37.5C26.9989 38.3703 27.2082 39.228 27.61 40ZM36 31.5C36 31.6326 35.9473 31.7598 35.8536 31.8536C35.7598 31.9473 35.6326 32 35.5 32H9.5C9.36739 32 9.24021 31.9473 9.14645 31.8536C9.05268 31.7598 9 31.6326 9 31.5V19.85C9.4936 19.9509 9.9962 20.0011 10.5 20C11.6645 20.0008 12.8131 19.73 13.8546 19.2093C14.8962 18.6885 15.8019 17.932 16.5 17C17.1949 17.9369 18.0995 18.6981 19.1414 19.2225C20.1833 19.747 21.3335 20.0202 22.5 20.0202C23.6665 20.0202 24.8167 19.747 25.8586 19.2225C26.9005 18.6981 27.8051 17.9369 28.5 17C29.1981 17.932 30.1038 18.6885 31.1454 19.2093C32.1869 19.73 33.3355 20.0008 34.5 20C35.0038 20.0011 35.5064 19.9509 36 19.85V31.5ZM34.5 17C33.3073 16.9974 32.1643 16.5224 31.3209 15.6791C30.4776 14.8357 30.0026 13.6927 30 12.5C29.9962 12.3297 29.9658 12.161 29.91 12H39V12.5C38.9974 13.6927 38.5224 14.8357 37.6791 15.6791C36.8357 16.5224 35.6927 16.9974 34.5 17Z" fill="#C1F0D0"/>
</svg>
